<svg xmlns="http://www.w3.org/2000/svg"  viewBox="0 0 64 64" width="64px" height="64px"><linearGradient id="UN4RlDSVUff8gfIC6tpoIa" x1="22.649" x2="22.857" y1="26.442" y2="39.934" gradientUnits="userSpaceOnUse"><stop offset="0" stop-color="#6dc7ff"/><stop offset="1" stop-color="#e6abff"/></linearGradient><path fill="url(#UN4RlDSVUff8gfIC6tpoIa)" d="M22.751,27.252c-2.629,0-4.793,2.605-4.793,5.77s2.164,5.77,4.793,5.77	s4.793-2.605,4.793-5.77S25.38,27.252,22.751,27.252z"/><linearGradient id="UN4RlDSVUff8gfIC6tpoIb" x1="40.859" x2="41.067" y1="26.162" y2="39.654" gradientUnits="userSpaceOnUse"><stop offset="0" stop-color="#6dc7ff"/><stop offset="1" stop-color="#e6abff"/></linearGradient><path fill="url(#UN4RlDSVUff8gfIC6tpoIb)" d="M40.965,27.252c-2.63,0-4.793,2.605-4.793,5.77s2.164,5.77,4.793,5.77s4.793-2.605,4.793-5.77	S43.594,27.252,40.965,27.252z"/><linearGradient id="UN4RlDSVUff8gfIC6tpoIc" x1="32.478" x2="32.478" y1="10.284" y2="52.864" gradientUnits="userSpaceOnUse"><stop offset="0" stop-color="#1a6dff"/><stop offset="1" stop-color="#c822ff"/></linearGradient><path fill="url(#UN4RlDSVUff8gfIC6tpoIc)" d="M52.252,14.218c-0.104-0.15-0.249-0.27-0.417-0.343c-4.679-2.061-8.334-3.2-11.505-3.584	c-0.413-0.047-0.827,0.169-1.016,0.548l-1.1,2.214c-1.745-0.207-3.595-0.279-5.711-0.22c-2.164-0.057-4.017,0.014-5.764,0.22	l-1.1-2.214c-0.188-0.379-0.598-0.595-1.016-0.548c-3.169,0.384-6.825,1.523-11.505,3.584c-0.168,0.074-0.312,0.193-0.417,0.343	c-6.527,9.367-9.128,19.527-7.952,31.062c0.031,0.301,0.196,0.571,0.449,0.736c5.106,3.328,9.513,5.49,13.867,6.806	c0.443,0.133,0.915-0.052,1.149-0.448l3.162-5.337c2.886,0.916,5.909,1.393,8.948,1.393c2.616,0,5.219-0.362,7.735-1.044	c0.5-0.122,1.001-0.238,1.495-0.382l3.181,5.37c0.184,0.31,0.514,0.49,0.86,0.49c0.096,0,0.193-0.014,0.289-0.042	c4.355-1.315,8.762-3.478,13.868-6.806c0.253-0.165,0.418-0.436,0.449-0.736C61.38,33.745,58.778,23.584,52.252,14.218z M58.262,44.601c-4.479,2.885-8.39,4.832-12.206,6.072l-2.62-4.422c1.03-0.418,2.041-0.885,3.02-1.418	c0.484-0.264,0.664-0.872,0.399-1.357c-0.263-0.484-0.869-0.664-1.356-0.4c-1.963,1.069-4.053,1.888-6.209,2.452	c-2.219,0.52-4.466,0.806-6.812,0.856c-3.16-0.067-6.268-0.578-9.237-1.518c-0.011-0.003-0.022-0.001-0.032-0.004	c-1.393-0.488-2.753-1.076-4.052-1.785c-0.488-0.264-1.094-0.084-1.356,0.4c-0.265,0.485-0.085,1.093,0.399,1.357	c1.055,0.575,2.145,1.081,3.26,1.521l-2.559,4.319c-3.815-1.241-7.725-3.187-12.205-6.072c-0.998-10.747,1.454-20.244,7.49-29.009	c4.026-1.758,7.229-2.792,9.985-3.22l1.097,2.208c0.191,0.385,0.606,0.603,1.036,0.545c1.845-0.262,3.798-0.356,6.201-0.295	c2.35-0.06,4.305,0.033,6.148,0.295c0.43,0.058,0.845-0.16,1.036-0.545l1.097-2.208c2.758,0.428,5.96,1.462,9.985,3.22	C56.806,24.356,59.259,33.853,58.262,44.601z"/></svg>