<svg width="301" height="71" viewBox="0 0 301 71" fill="none" xmlns="http://www.w3.org/2000/svg">
<path opacity="0.9" fill-rule="evenodd" clip-rule="evenodd" d="M27.9753 12.414C27.6094 12.6174 27.0812 12.7857 26.8013 12.7878C25.1302 12.8009 20.063 15.122 17.4842 17.0557C14.6807 19.1579 11.9351 22.576 10.5107 25.7368C9.01736 29.0499 8.81646 29.5942 8.81486 30.3284C8.8138 30.7266 8.63419 31.396 8.41572 31.8159C7.96469 32.682 7.83271 39.3033 8.26112 39.5685C8.3947 39.6514 8.58336 40.2283 8.68022 40.8505C9.05861 43.2827 11.082 47.9071 12.764 50.1839C14.1019 51.9951 17.2807 54.9874 19.0209 56.074C21.4613 57.5972 24.9812 59.1753 25.9455 59.178C26.2569 59.1791 26.8548 59.359 27.2739 59.5779C28.3622 60.1465 36.121 60.1382 36.8738 59.5677C37.158 59.3526 37.6369 59.1764 37.9382 59.1761C38.6172 59.1761 40.8476 58.3375 42.6874 57.3909C47.5732 54.8765 51.1825 51.1444 53.5931 46.1141C54.6412 43.9271 55.1167 42.6496 55.1186 42.0162C55.1197 41.7043 55.2993 41.1053 55.5177 40.6855C55.82 40.1049 55.9153 38.9418 55.9153 35.8362C55.9153 33.5889 55.8049 31.6818 55.6697 31.5984C55.5345 31.5146 55.3472 31.0577 55.2532 30.583C54.1423 24.9646 49.3542 18.4531 44.1773 15.5208C42.1507 14.3726 38.5284 12.9832 36.687 12.6473C36.1364 12.5468 35.6205 12.3583 35.5404 12.2285C35.2948 11.8302 28.7361 11.9913 27.9753 12.414ZM36.4627 14.4363C37.6569 14.7181 38.7093 15.0766 40.8809 15.9417C42.7694 16.694 46.2281 19.135 47.7706 20.8043C51.7309 25.0896 53.7682 30.1903 53.7801 35.8508C53.7897 40.3333 52.8733 43.6717 50.6006 47.431C48.6128 50.7192 45.2805 53.8283 41.9453 55.507C38.6854 57.1478 36.5867 57.6614 32.6474 57.7827C28.8752 57.899 28.4623 57.8395 24.6491 56.6317C22.489 55.9473 20.4895 54.8051 17.5085 52.5514C16.2416 51.5936 14.0301 48.8665 12.8297 46.7813C9.88723 41.671 9.31486 34.6054 11.3547 28.5826C12.3851 25.5406 14.6945 22.0487 17.1444 19.8276C22.3059 15.1483 30.1722 12.9531 36.4627 14.4363ZM30.1041 18.9564C26.6781 19.4328 24.4014 20.3538 21.8123 22.311C18.2469 25.0061 15.9396 28.714 15.0801 33.1301C13.8281 39.5632 16.9638 46.5478 22.8687 50.478C25.7377 52.3877 27.697 52.9118 31.9667 52.9118C35.0101 52.9118 35.8483 52.8169 37.4507 52.2907C42.0621 50.7765 46.537 46.3183 48.1988 41.5822C49.0543 39.1444 49.2485 34.5121 48.599 32.0326C47.2342 26.8221 43.9908 22.9332 38.8546 20.3488C38.084 19.9611 37.0271 19.5362 36.5063 19.4048C35.0047 19.0257 31.4135 18.7743 30.1041 18.9564ZM30.3148 23.6314C30.3957 25.6155 30.7374 26.2697 31.5338 25.9634C32.0088 25.7808 32.0899 25.3095 31.983 23.3544C31.9013 21.8605 32.145 21.599 33.6248 21.5929C34.761 21.5883 34.8453 21.764 34.9584 24.368L35.0268 25.9474L36.6101 26.3065C40.0259 27.0815 41.7766 28.9451 41.4168 31.4232C41.2338 32.6849 40.7085 33.7339 39.9695 34.3135C39.6031 34.6011 39.7072 34.7856 40.7955 35.7796C41.4804 36.4053 42.2287 37.301 42.4586 37.7702C43.325 39.5384 42.6941 42.5473 41.1278 44.1163C40.213 45.0326 38.0526 45.8475 36.5377 45.8475C35.0375 45.8475 34.8938 46.0229 34.8938 47.8535C34.8938 50.1597 34.7751 50.3793 33.5282 50.3793C32.6368 50.3793 32.4449 50.273 32.203 49.6462C32.0476 49.2432 31.9862 48.42 32.0665 47.8172C32.2501 46.438 31.7233 45.5569 30.9846 46.0082C30.6131 46.2351 30.4729 46.7528 30.3702 48.2742L30.2371 50.246H29.0397H27.8423L27.7648 48.1902L27.6871 46.1341L26.7518 45.9584C26.2374 45.8616 25.2236 45.8395 24.4988 45.9093C22.775 46.0754 22.3232 45.7385 22.4344 44.3707C22.5198 43.3225 22.5294 43.3139 23.8029 43.1673C24.5081 43.0863 25.1949 42.8464 25.3287 42.6342C25.4628 42.4222 25.5741 39.3438 25.5765 35.7935C25.5802 29.6822 25.553 29.3236 25.0658 29.0624C24.7827 28.9107 24.1481 28.7865 23.6555 28.7865C22.5704 28.7865 22.1212 28.3864 22.1212 27.4192C22.1212 26.1346 22.697 25.8541 25.3332 25.8541H27.7092V23.8993C27.7092 22.8239 27.7946 21.8587 27.8992 21.7542C28.0035 21.6494 28.5724 21.5995 29.1632 21.643L30.2371 21.7222L30.3148 23.6314ZM88.1128 23.1214C86.3448 23.4232 85.5955 25.6785 86.8659 26.8741C87.3299 27.3104 87.8124 27.4536 88.8203 27.4536C90.3751 27.4536 90.9792 26.9687 91.2115 25.534C91.4653 23.9673 89.9715 22.8042 88.1128 23.1214ZM147.79 23.1068C146.995 23.2641 146.122 24.4226 146.122 25.321C146.122 25.7214 146.37 26.3649 146.673 26.7512C147.146 27.3539 147.427 27.4536 148.649 27.4536C149.872 27.4536 150.153 27.3539 150.626 26.7512C152.085 24.8931 150.308 22.6096 147.79 23.1068ZM234.332 23.2006C233.281 23.5216 232.868 24.1336 232.868 25.3719C232.868 26.8242 233.584 27.4536 235.234 27.4536C237.208 27.4536 237.847 26.7128 237.7 24.594C237.624 23.5114 235.794 22.7541 234.332 23.2006ZM253.279 23.0897C253.035 23.3336 253.078 27.9305 253.343 29.9861C253.456 30.8658 253.505 31.6367 253.451 31.6994C253.396 31.762 253.024 31.5059 252.623 31.13C251.312 29.9013 250.169 29.4679 248.257 29.4753C246.761 29.4812 246.283 29.6065 245.204 30.2745C243.563 31.291 242.559 32.927 242.021 35.4589C241.004 40.244 242.486 45.1709 245.39 46.6547C247.788 47.8804 250.267 47.5675 252.185 45.7968L253.358 44.7132L253.902 45.9469L254.447 47.1804H256.167H257.887L257.818 35.1177L257.748 23.0551L255.607 22.9785C254.43 22.9364 253.382 22.9863 253.279 23.0897ZM65.3502 24.5881C65.28 24.7713 65.2539 29.8997 65.2922 35.9844L65.3617 47.0471L70.8166 47.0439C74.4406 47.042 76.6473 46.9277 77.3913 46.7035C78.9868 46.2228 80.697 44.8345 81.3939 43.4547C82.1863 41.8853 82.2177 39.2787 81.4628 37.7345C80.9445 36.6745 79.4567 35.4509 78.6858 35.4509C77.8905 35.4509 78.0589 34.9946 79.0115 34.5688C80.5089 33.8997 81.296 32.5332 81.404 30.415C81.577 27.0244 79.7574 25.1768 75.6063 24.5287C73.0244 24.1256 65.5107 24.1691 65.3502 24.5881ZM185.891 24.5881C185.821 24.7713 185.795 29.8997 185.833 35.9844L185.903 47.0471L188.231 47.1241L190.559 47.2012V35.7279V24.2547H188.289C186.718 24.2547 185.98 24.3573 185.891 24.5881ZM98.2731 26.5872C98.143 26.8437 97.813 27.6917 97.5395 28.4711C97.1145 29.6819 96.8569 29.9928 95.7707 30.6038C94.6063 31.259 94.4996 31.403 94.4993 32.3186C94.4991 33.3026 94.5153 33.3183 95.5352 33.3183H96.5714L96.6696 38.45C96.7601 43.1801 96.8165 43.6813 97.3912 44.8566C98.2813 46.6779 99.5501 47.3043 102.349 47.3046C103.52 47.3049 104.927 47.1476 105.475 46.9554L106.473 46.6059V44.8652C106.473 43.3153 106.422 43.1449 106.008 43.3083C104.846 43.7666 102.763 43.7863 102.092 43.3451L101.418 42.9029V38.1106V33.3183H103.812H106.207V31.5856V29.8528H103.812H101.418V27.9868V26.1207H99.9633C98.8457 26.1207 98.4546 26.2287 98.2731 26.5872ZM75.9847 29.0328C76.9043 29.8995 76.924 31.3942 76.0289 32.437C75.4169 33.1504 75.2625 33.1893 72.7027 33.2767L70.0183 33.3682V30.7858V28.2035L72.6585 28.2949C75.0185 28.377 75.3714 28.4551 75.9847 29.0328ZM30.5476 29.2309C30.45 29.3284 30.3702 30.3934 30.3702 31.5973C30.3702 34.3564 30.528 34.5203 32.971 34.2969C34.5234 34.1551 34.8579 34.0258 35.4925 33.3218C36.5321 32.1686 36.4967 30.8549 35.3978 29.8264C34.6436 29.1208 34.4034 29.0531 32.6482 29.0531C31.5905 29.0531 30.645 29.133 30.5476 29.2309ZM115.654 29.4823C111.379 30.5627 109.403 33.1067 109.184 37.8083C109.023 41.2794 109.606 43.3883 111.2 45.0949C112.761 46.7675 114.332 47.3169 117.516 47.3038C119.386 47.2961 120.188 47.1676 121.175 46.7189L122.439 46.1439V44.263C122.439 43.2284 122.394 42.382 122.34 42.382C122.285 42.382 121.698 42.6227 121.034 42.9167C119.241 43.7114 116.942 43.8642 115.787 43.2652C114.377 42.5337 113.813 41.14 113.812 38.3833C113.81 35.4262 114.534 33.9253 116.25 33.3287C117.387 32.9336 117.53 32.9467 120.999 33.7659C121.459 33.8747 121.655 33.6657 122.13 32.5588C122.957 30.6333 122.904 30.4673 121.308 29.9805C119.856 29.5374 116.578 29.2487 115.654 29.4823ZM131.682 29.5934C129.358 30.1796 127.115 31.9742 126.322 33.8816C125.197 36.5866 125.3 40.6825 126.553 43.1615C128.991 47.9807 136.419 48.8644 140.092 44.7724C141.684 42.9988 142.23 41.0875 142.086 37.7987C141.996 35.7367 141.845 35.0175 141.239 33.7768C140.37 31.9972 138.828 30.5824 137.11 29.989C135.554 29.4513 132.986 29.2642 131.682 29.5934ZM164.349 29.5644C162.834 29.9842 162.174 30.3414 161.401 31.162C160.974 31.6149 160.54 31.9854 160.435 31.9854C160.331 31.9854 160.115 31.5003 159.955 30.9071L159.665 29.8291L157.883 29.9074L156.1 29.9861V38.5166V47.0471L158.428 47.1241L160.757 47.2012V42.1106C160.757 36.4586 160.988 35.0393 162.083 33.989C162.982 33.1256 164.645 32.8337 165.84 33.3298C167.252 33.9157 167.409 34.7125 167.409 41.3071V47.1804H169.827H172.246L172.145 40.4493C172.04 33.4727 171.992 33.1493 170.793 31.3795C170.517 30.973 169.824 30.4017 169.253 30.1095C168.083 29.5118 165.553 29.2306 164.349 29.5644ZM204.263 29.5646C202.749 29.9837 202.089 30.3414 201.315 31.162C200.889 31.6149 200.454 31.9854 200.35 31.9854C200.245 31.9854 200.03 31.5056 199.873 30.9191L199.586 29.8528H197.867H196.147V38.5166V47.1804H198.386H200.625L200.723 41.5156C200.808 36.617 200.889 35.7167 201.323 34.8602C202.423 32.6892 205.889 32.3789 206.911 34.3598C207.248 35.0111 207.323 36.2645 207.323 41.169V47.1804H209.718H212.113L212.111 41.5156C212.11 35.0892 211.875 33.1234 210.94 31.7082C209.806 29.9917 206.526 28.9384 204.263 29.5646ZM220.096 29.743C217.478 30.4377 216.104 31.959 216.104 34.166C216.104 36.8444 217.012 37.8672 221.03 39.7165C223.721 40.9553 224.62 41.6636 224.62 42.5467C224.62 44.0926 221.615 44.4581 218.099 43.3398L216.082 42.6981L216.16 44.5951L216.238 46.4924L217.435 46.8685C219.023 47.3678 223.606 47.415 225.207 46.949C228.463 46.001 229.99 42.8093 228.626 39.8004C228.024 38.4729 226.892 37.6657 223.799 36.3589C221.231 35.2739 220.628 34.8165 220.628 33.9528C220.628 32.6935 222.987 32.3933 225.615 33.3183C226.448 33.6116 227.23 33.8515 227.352 33.8515C227.531 33.8515 228.877 31.167 228.877 30.8106C228.877 30.6272 227.386 30.1215 225.684 29.7278C223.551 29.2341 221.998 29.2383 220.096 29.743ZM267.727 29.7256C264.631 30.5806 262.961 32.5247 262.227 36.1297C261.871 37.8821 261.849 38.5752 262.098 40.1846C262.264 41.2525 262.635 42.5888 262.923 43.1545C263.648 44.5781 265.64 46.2588 267.282 46.8328C269.111 47.472 273.124 47.4614 275.244 46.8117L276.774 46.3428V44.6111C276.774 43.0849 276.719 42.8962 276.309 43.0218C270.533 44.7902 267.288 44.0046 266.754 40.7097L266.593 39.7162H272.216H277.839V37.5937C277.839 33.8533 276.388 31.2678 273.624 30.0807C271.969 29.37 269.544 29.2242 267.727 29.7256ZM290.343 29.5625C289.032 29.9741 287.986 30.6563 287.2 31.6109C286.762 32.144 286.286 32.5079 286.143 32.4194C286 32.3309 285.802 31.7173 285.703 31.0556L285.523 29.8528H283.676H281.83V38.5166V47.1804H284.225H286.62V41.8883C286.62 36.8393 286.647 36.5551 287.219 35.7047C288.102 34.3926 289.297 33.7976 291.137 33.7547L292.707 33.7182L292.884 32.0905C293.138 29.7414 293.04 29.4623 291.939 29.4031C291.428 29.3756 290.71 29.4473 290.343 29.5625ZM86.5162 38.5166V47.1804H88.778H91.0398V38.5166V29.8528H88.778H86.5162V38.5166ZM146.388 38.5166V47.1804H148.649H150.911V38.5166V29.8528H148.649H146.388V38.5166ZM233.031 30.2716C232.943 30.5019 232.9 34.3705 232.936 38.8687L233.002 47.0471L235.33 47.1241L237.658 47.2012V38.527V29.8528H235.425C233.64 29.8528 233.159 29.937 233.031 30.2716ZM271.916 33.1064C272.699 33.5001 273.234 34.3452 273.458 35.5453L273.64 36.5173H270.134C266.286 36.5173 266.583 36.6727 267.072 34.9178C267.615 32.9688 269.924 32.1051 271.916 33.1064ZM135.909 33.715C136.841 34.3265 137.378 35.7599 137.506 37.9773C137.723 41.7155 136.202 43.8919 133.546 43.6442C131.173 43.4227 130.304 42.017 130.295 38.3833C130.29 36.3125 130.388 35.6807 130.83 34.9178C131.858 33.1461 134.198 32.5919 135.909 33.715ZM251.917 33.7086C253.081 34.4723 253.462 35.6229 253.467 38.3833C253.472 41.5153 253.016 42.7512 251.646 43.3246C249.76 44.1145 248.125 43.6869 247.181 42.157C246.07 40.3555 246.241 35.7138 247.471 34.2815C248.515 33.0656 250.54 32.8046 251.917 33.7086ZM30.5476 37.2282C30.2251 37.551 30.3497 42.2548 30.6895 42.5952C31.0804 42.9868 33.8632 43.0138 35.2094 42.6392C38.0185 41.8576 38.4105 38.3017 35.7972 37.3063C35.0391 37.0176 30.8204 36.9547 30.5476 37.2282ZM74.9086 37.3405C76.4898 37.7803 77.2029 38.6475 77.2029 40.1307C77.2029 41.1834 77.0674 41.5047 76.2982 42.2753L75.3934 43.1817H72.7059H70.0183V40.1161V37.0504L71.9475 37.052C73.0087 37.0528 74.341 37.1826 74.9086 37.3405Z" fill="white"/>
</svg>
