<svg width="300" height="71" viewBox="0 0 300 71" fill="none" xmlns="http://www.w3.org/2000/svg">
<path opacity="0.9" fill-rule="evenodd" clip-rule="evenodd" d="M30.7647 5.60684C17.9173 9.01008 9.06922 21.4672 10.0783 34.7299C10.2921 37.5357 10.6687 40.0445 10.9156 40.305C11.1619 40.5656 14.7817 37.4515 18.9595 33.3849L26.5546 25.9906L32.4824 32.2076L38.4103 38.4247L43.8765 32.805C48.4203 28.1331 49.1869 26.9868 48.4203 26.0128C47.6394 25.0198 48.4188 24.4502 53.5326 22.2759L59.5659 19.71L58.108 17.5492C51.891 8.33801 40.0217 3.1537 30.7647 5.60684ZM67.8635 35.0429V49.4081L76.9669 49.1436C85.8714 48.8838 86.1094 48.8298 87.8858 46.6492C90.2172 43.7869 90.3685 38.8576 88.1953 36.5649C87.367 35.6911 86.2916 34.9761 85.8052 34.9761C85.3187 34.9761 85.7253 34.0729 86.7088 32.9687C87.8624 31.673 88.4965 30.0087 88.4965 28.2761C88.4965 22.8256 84.5853 20.6768 74.6648 20.6768H67.8635V35.0429ZM127.353 22.6628C127.353 24.2516 127.729 24.6488 129.235 24.6488C130.741 24.6488 131.118 24.2516 131.118 22.6628C131.118 21.074 130.741 20.6768 129.235 20.6768C127.729 20.6768 127.353 21.074 127.353 22.6628ZM204.699 21.1685C204.404 21.4807 204.162 27.9321 204.162 35.506V49.2755H206.401H208.639L208.848 38.1331L209.056 26.9915L215.092 37.9345C221.016 48.6765 221.18 48.883 223.94 49.1245L226.753 49.3716V35.0238V20.6768H224.494H222.234L222.222 31.9971L222.21 43.3174L215.976 32.1957C210.36 22.1766 209.519 21.0509 207.489 20.838C206.251 20.7078 204.995 20.8571 204.699 21.1685ZM58.1645 24.9213C57.2827 27.0368 56.3572 29.629 56.1064 30.6808C55.62 32.7256 54.7201 33.1434 53.8827 31.7135C53.571 31.1812 50.3156 34.0419 45.6454 38.9521L37.9238 47.0702L32.1074 41.2408L26.2902 35.4123L20.751 41.7477C17.7042 45.2327 15.1974 48.489 15.1816 48.9847C15.1296 50.537 21.1862 55.7213 25.6035 57.9067C29.1359 59.6536 30.8943 60 36.2363 60C41.5782 60 43.3366 59.6536 46.869 57.9067C52.8149 54.9658 56.9047 50.7594 59.7511 44.66C61.9025 40.0508 62.1939 38.6519 62.1804 33.0274C62.1706 28.9068 61.7391 25.6466 60.9665 23.8544L59.7677 21.074L58.1645 24.9213ZM82.9241 26.2376C84.7065 28.118 84.8104 29.3573 83.3616 31.4482C82.4836 32.7136 81.3713 32.9901 77.1491 32.9901H72.0052L71.7664 29.9277C71.3884 25.0659 71.792 24.6488 76.8765 24.6488C80.4142 24.6488 81.7509 24.9999 82.9241 26.2376ZM91.9604 36.9431C91.9604 42.7764 92.2812 46.2536 92.9017 47.1409C94.8619 49.9436 101.76 50.1954 103.368 47.5214C103.826 46.7612 103.989 46.8557 103.998 47.8853C104.006 48.9005 104.624 49.2755 106.29 49.2755H108.571L108.361 38.7702L108.151 28.2658L106.268 28.265C104.407 28.2642 104.383 28.3484 104.186 35.7912C104.013 42.3109 103.775 43.5033 102.408 44.7076C100.656 46.2512 98.9365 46.4561 97.2316 45.3225C96.3928 44.7656 96.005 42.4833 95.7256 36.4609C95.3671 28.7456 95.2662 28.3436 93.6547 28.2205C91.9921 28.0942 91.9604 28.2554 91.9604 36.9431ZM112.77 29.4733C111.331 30.6673 110.786 31.8517 110.786 33.7853C110.786 37.2426 112.206 38.6463 117.277 40.2017C121.072 41.3656 121.396 41.6468 121.184 43.5859C120.983 45.4162 120.56 45.7348 118.042 45.9525C115.895 46.1384 114.691 45.7674 113.449 44.536C111.944 43.0449 111.662 42.9981 110.795 44.0999C108.473 47.0519 115.576 50.7396 120.706 49.2461C123.893 48.3174 124.923 47.1989 125.528 44.0062C126.165 40.6474 123.863 38.0298 118.952 36.53C116.222 35.6959 114.85 34.8355 114.67 33.8449C114.124 30.8563 118.455 30.0373 121.489 32.5556C122.899 33.7265 123.57 33.8822 124.225 33.1911C125.569 31.7739 125.29 31.1074 122.646 29.4065C119.446 27.3482 115.298 27.376 112.77 29.4733ZM129.047 28.3873C127.394 28.7233 127.353 28.9823 127.353 39.0038V49.2755H129.235H131.118V38.551C131.118 32.6525 131.033 27.8749 130.93 27.9345C130.827 27.9941 129.979 28.1974 129.047 28.3873ZM134.507 28.489C134.299 28.7074 134.13 33.4731 134.13 39.0808V49.2755H136.389H138.648V41.8517C138.648 33.7082 139.525 31.7985 143.264 31.7985C146.426 31.7985 146.932 33.1339 146.932 41.4903V49.2755H149.257H151.583L151.328 40.4663C151.082 31.9478 151.004 31.5943 148.96 29.7418C146.575 27.5794 143.75 27.3077 140.76 28.9537C139.387 29.7092 138.642 29.7926 138.458 29.2095C138.178 28.3253 135.18 27.778 134.507 28.489ZM157.766 28.605C155.299 29.6568 153.079 33.1665 152.557 36.8422C151.371 45.1898 157.603 51.3783 165.063 49.2588C168.654 48.2388 170.071 46.561 168.755 44.888C167.903 43.8052 167.621 43.8052 166.054 44.888C163.489 46.6611 160.262 46.3973 158.358 44.2596C157.457 43.2483 156.721 41.8184 156.721 41.082C156.721 39.9253 157.644 39.7426 163.498 39.7426H170.275L170.272 37.1608C170.265 30.3972 163.853 26.0104 157.766 28.605ZM173.914 29.0411C171.391 30.4869 170.439 34.3287 171.99 36.8017C172.612 37.7931 175.006 39.2389 177.517 40.1398C181.339 41.5101 181.947 42.0011 181.947 43.7146C181.947 45.4472 181.575 45.7332 179.038 45.9525C176.898 46.1376 175.687 45.7674 174.459 44.5503C172.809 42.9154 172.773 42.9139 171.469 44.4344C170.202 45.9112 170.224 46.0256 172.002 47.2545C176.471 50.344 181.246 50.4568 184.292 47.5453C185.863 46.0438 185.921 46.047 188.709 47.782C194.589 51.4418 201.903 49.0809 201.903 43.524C201.903 39.857 200.679 38.3778 196.451 36.9351C191.387 35.2073 189.996 33.9307 191.329 32.2354C192.56 30.6712 195.819 30.6514 197.909 32.1957C199.51 33.3786 201.903 33.083 201.903 31.7016C201.903 31.3052 200.801 30.2724 199.455 29.4065C194.723 26.3624 188.158 28.0807 187.215 32.6112C186.451 36.2798 188.293 38.5875 193.183 40.0873C197.744 41.4863 198.461 42.1806 197.759 44.5162C197.09 46.7381 192.128 46.7215 190.215 44.49C189.274 43.3937 188.591 43.1411 188.065 43.6956C186.791 45.0397 186.089 44.6234 186.089 42.523C186.089 39.8347 183.819 37.6302 179.917 36.5292C175.58 35.3058 174.622 34.4161 175.589 32.5095C176.518 30.6784 179.826 30.5187 182.095 32.1957C183.697 33.3786 186.089 33.083 186.089 31.7016C186.089 30.3328 181.187 27.8328 178.559 27.8614C177.109 27.8773 175.019 28.408 173.914 29.0411ZM232.293 30.4575C230.035 32.6398 229.51 33.7615 229.211 37.0344C228.58 43.9752 231.674 48.9132 236.919 49.3343C241.157 49.6735 243.151 49.2763 244.93 47.7383C246.587 46.3044 246.624 46.1098 245.46 44.861C244.306 43.6217 244.081 43.6177 242.468 44.8093C238.919 47.4325 233.53 45.3352 233.53 41.3314C233.53 39.8601 234.032 39.7426 240.307 39.7426H247.084V37.6779C247.084 34.4995 244.853 30.2661 242.502 28.9831C238.853 26.9923 235.354 27.4984 232.293 30.4575ZM247.084 28.9775C247.084 29.4208 247.999 34.1865 249.117 39.5678L251.149 49.3517L254.164 49.115L257.179 48.8783L258.721 42.3808C259.569 38.8068 260.462 35.6768 260.706 35.425C260.951 35.1723 261.555 36.874 262.049 39.2056C264.2 49.3414 264.164 49.2755 267.452 49.2755C269.089 49.2755 270.434 49.0078 270.441 48.6797C270.449 48.3516 271.418 43.7146 272.596 38.3738C273.773 33.0338 274.606 28.5271 274.447 28.3595C274.288 28.1911 273.33 28.2213 272.318 28.4254C270.228 28.8465 270.177 28.9791 268.574 38.0982C267.926 41.781 267.291 44.9062 267.161 45.0429C267.032 45.1795 265.935 41.4593 264.724 36.7771C262.701 28.9569 262.374 28.2634 260.711 28.2658C259.121 28.2673 258.738 28.8965 257.577 33.4096C256.85 36.2369 255.826 40.1596 255.303 42.1258L254.351 45.7006L252.745 37.0297C251.186 28.6153 251.079 28.3555 249.112 28.265C247.996 28.2133 247.084 28.5343 247.084 28.9775ZM278.196 28.5843C274.931 30.0556 273.854 35.2756 276.328 37.6374C277.087 38.3619 279.424 39.4931 281.521 40.1493C283.617 40.8063 285.543 41.9224 285.8 42.6303C287.03 46.0097 281.211 47.3784 277.767 44.5202C276.091 43.1299 275.755 43.0847 274.926 44.138C274.16 45.1104 274.237 45.6268 275.339 46.9105C278.452 50.5394 286.384 50.4067 288.856 46.6849C291.57 42.5969 289.312 38.2753 283.606 36.6364C279.133 35.3511 278.164 34.5178 279.165 32.8137C280.371 30.7618 283.124 30.6236 285.523 32.4936C287.37 33.9347 287.719 33.9831 288.558 32.917C290.863 29.9872 282.676 26.5641 278.196 28.5843ZM164.662 32.9544C167.512 35.9604 167.002 36.5649 161.616 36.5649C156.515 36.5649 155.684 35.8643 157.662 33.2332C159.681 30.5481 162.283 30.4448 164.662 32.9544ZM240.799 32.1711C241.668 32.8137 242.559 34.0649 242.779 34.9515C243.151 36.4561 242.834 36.5649 238.048 36.5649C233.263 36.5649 232.945 36.4561 233.318 34.9515C233.772 33.1172 236.305 31.0041 238.048 31.0041C238.692 31.0041 239.93 31.5292 240.799 32.1711ZM84.4301 38.1538C86.2427 40.0659 86.3135 41.2043 84.7637 43.5375C83.72 45.1104 82.9376 45.3034 77.6099 45.3034H71.6286V41.4641C71.6286 39.3517 71.8545 37.3856 72.1309 37.0948C72.4065 36.8033 74.948 36.5649 77.7786 36.5649C81.9203 36.5649 83.2178 36.8748 84.4301 38.1538Z" fill="white"/>
</svg>
