<svg width="316" height="71" viewBox="0 0 316 71" fill="none" xmlns="http://www.w3.org/2000/svg">
<path opacity="0.9" fill-rule="evenodd" clip-rule="evenodd" d="M36.8402 13.2324C33.0433 14.6939 30.174 16.6006 28.5112 18.767C27.3541 20.2747 27.2268 21.5558 27.0487 33.4991C26.9416 40.6931 27.017 47.2197 27.2166 48.0026C27.8516 50.4974 31.2056 53.5778 35.3061 55.4345C38.8623 57.0447 39.9547 57.2332 45.6204 57.2163C51.8912 57.1976 52.0084 57.1689 56.901 54.4999C59.6201 53.0165 61.9641 51.9209 62.1104 52.0651C62.2568 52.2087 61.5167 55.3665 60.4667 59.0818C59.4161 62.7965 58.6398 65.9094 58.7418 65.9993C58.9465 66.1785 82.8721 32.8354 83.2307 31.8702C83.3543 31.5393 80.2588 32.8479 76.3522 34.7783C72.4456 36.7087 69.1404 38.1808 69.008 38.0497C68.8749 37.9186 69.4205 36.1456 70.2202 34.1097L71.6744 30.4074L78.0422 30.2308L84.4106 30.0535L85.7768 24.924C86.5284 22.1021 87.1392 19.4431 87.1348 19.0136C87.1278 18.4168 84.2915 18.2332 75.0874 18.2332H63.0495L60.0377 16.1155C58.3819 14.9512 55.6622 13.5464 53.9944 12.9939C49.7019 11.573 40.833 11.696 36.8402 13.2324ZM52.9076 14.5297C54.1274 14.8413 56.1235 15.7322 57.3433 16.5088L59.5612 17.921L54.6673 18.1034L49.7741 18.285L49.1626 20.6006C48.8261 21.8736 48.1354 24.5214 47.6266 26.4842L46.7027 30.0528L53.1319 30.2301L59.5612 30.4074L55.7591 32.2804C52.2949 33.9867 51.3938 34.1534 45.6204 34.1534C39.9484 34.1534 38.9009 33.9679 35.635 32.3878C28.7203 29.0427 26.7788 23.6979 30.8273 19.1547C35.3777 14.049 43.9785 12.2472 52.9076 14.5297ZM85.2249 20.1336C85.2249 20.4926 84.7648 22.5903 84.2028 24.7954L83.1807 28.8048L76.8547 28.9815L70.5288 29.1588L68.3895 34.3856C64.9246 42.8545 64.6597 42.488 71.6713 38.9263C75.0899 37.1894 77.9833 35.8634 78.1012 35.9789C78.3198 36.1943 63.1129 57.5653 62.7409 57.5653C62.6281 57.5653 63.0996 55.7136 63.789 53.4498C64.4785 51.1867 64.9075 49.202 64.7427 49.0396C64.5786 48.8773 62.4254 49.7464 59.9585 50.97C57.4922 52.1937 55.3536 53.1951 55.2066 53.1951C55.0596 53.1951 56.3339 47.9277 58.0385 41.4891C59.7437 35.0511 61.1397 29.5721 61.1416 29.3149C61.1435 29.0577 58.4364 28.8466 55.1255 28.8466C51.364 28.8466 49.1056 28.6019 49.1056 28.1949C49.1056 27.8359 49.5682 25.7288 50.1334 23.5125L51.1606 19.4818H68.1931C79.6087 19.4818 85.2249 19.6966 85.2249 20.1336ZM96.2369 29.1195C91.7017 31.0642 90.8272 35.7398 94.3498 39.2103C96.7666 41.5915 98.762 41.8937 101.811 40.3404C103.52 39.4694 103.645 39.2359 102.832 38.4349C102.074 37.687 101.6 37.6589 100.219 38.2789C96.5961 39.9052 93.4309 36.1993 95.6254 32.9003C96.394 31.7441 97.2165 31.3439 98.826 31.3439C100.017 31.3439 101.177 31.6386 101.403 31.9988C101.683 32.4458 102.096 32.4221 102.707 31.922C104.046 30.8276 103.817 30.3381 101.446 29.23C98.8862 28.0332 98.776 28.0307 96.2369 29.1195ZM112.216 29.1607C109.565 30.5448 108.714 31.9302 108.691 34.8988C108.664 38.4512 110.619 40.6663 114.199 41.1395C116.633 41.461 117.073 41.2956 119.109 39.2903C121.434 36.9996 121.849 35.2309 120.739 32.3534C119.548 29.2668 115.16 27.623 112.216 29.1607ZM127.47 28.6387C127.237 28.8672 127.047 31.8172 127.047 35.1941C127.047 40.9166 127.133 41.333 128.315 41.333C129.501 41.333 129.582 40.9166 129.582 34.7777C129.582 29.7313 129.387 28.2223 128.737 28.2223C128.272 28.2223 127.702 28.4096 127.47 28.6387ZM135.919 34.7777C135.919 40.8635 136.007 41.333 137.156 41.333C138.23 41.333 138.418 40.8217 138.581 37.4404L138.77 33.5478L141.622 37.4223C143.662 40.1943 144.885 41.3018 145.921 41.3149C147.348 41.333 147.367 41.2388 147.189 34.9413C147.035 29.5028 146.847 28.5189 145.929 28.3453C145.012 28.173 144.822 28.7811 144.661 32.3884L144.473 36.6344L141.431 32.4284C139.458 29.7001 137.955 28.2223 137.154 28.2223C136.008 28.2223 135.919 28.6949 135.919 34.7777ZM152.011 29.1032C151.452 30.5398 152.285 31.3439 154.333 31.3439H156.196V36.3385C156.196 40.9166 156.302 41.333 157.464 41.333C158.624 41.333 158.731 40.9166 158.731 36.3778V31.4232L160.79 31.2272C162.361 31.078 162.85 30.7352 162.85 29.7831C162.85 28.65 162.366 28.5176 157.612 28.3528C153.432 28.208 152.301 28.3597 152.011 29.1032ZM167.884 29.0246C167.7 29.4959 167.633 32.3884 167.735 35.4513L167.919 41.0209H172.672C176.474 41.0209 177.424 40.8336 177.424 40.0844C177.424 39.3951 176.547 39.098 174.097 38.9594C171.288 38.8002 170.771 38.581 170.771 37.5547C170.771 36.5295 171.219 36.3385 173.622 36.3385C176.051 36.3385 176.474 36.1537 176.474 35.0898C176.474 34.026 176.051 33.8412 173.622 33.8412C171.219 33.8412 170.771 33.6502 170.771 32.625C170.771 31.5986 171.288 31.3795 174.097 31.2203C176.938 31.0592 177.424 30.8495 177.424 29.7831C177.424 28.6662 176.939 28.5151 172.821 28.3509C169.37 28.213 168.134 28.3822 167.884 29.0246ZM183.233 28.6387C183.001 28.8672 182.81 31.8172 182.81 35.1941V41.333H187.246C191.259 41.333 191.682 41.2144 191.682 40.0844C191.682 39.0025 191.259 38.8358 188.513 38.8358H185.345V33.529C185.345 29.5228 185.138 28.2223 184.5 28.2223C184.035 28.2223 183.465 28.4096 183.233 28.6387ZM197.174 28.6387C196.941 28.8672 196.751 31.8172 196.751 35.1941V41.333H201.504C205.791 41.333 206.256 41.2138 206.256 40.1169C206.256 39.0905 205.739 38.8713 202.935 38.7121C200.369 38.5667 199.567 38.2757 199.404 37.431C199.226 36.507 199.688 36.3385 202.408 36.3385C205.17 36.3385 205.623 36.1674 205.623 35.1242C205.623 34.1184 205.106 33.8768 202.618 33.7195C200.355 33.5759 199.562 33.26 199.404 32.4365C199.223 31.5019 199.703 31.3439 202.725 31.3439C206.069 31.3439 206.256 31.2615 206.256 29.7831C206.256 28.2704 206.123 28.2223 201.926 28.2223C199.544 28.2223 197.406 28.4096 197.174 28.6387ZM215.445 29.2062C210.948 31.5162 210.477 37.4916 214.568 40.3148C217.027 42.0123 222.035 41.3936 223.514 39.2103C223.77 38.8326 223.984 37.6102 223.99 36.4946C223.999 34.5049 223.944 34.4655 221.148 34.4655C219.036 34.4655 218.296 34.7084 218.296 35.402C218.296 35.992 218.9 36.3385 219.926 36.3385C221.137 36.3385 221.503 36.62 221.347 37.431C221.091 38.7627 216.779 39.3027 215.4 38.1752C214.299 37.2756 214.201 33.1313 215.254 32.0931C216.191 31.1704 219.971 31.1029 220.533 31.9988C220.814 32.4458 221.226 32.4221 221.838 31.922C223.23 30.7839 222.914 30.1065 220.534 29.127C217.819 28.0094 217.774 28.0101 215.445 29.2062ZM229.702 34.7028C229.702 40.9166 229.782 41.333 230.969 41.333C231.995 41.333 232.237 40.9166 232.237 39.1479C232.237 36.2979 233.514 36.296 235.482 39.1435C236.45 40.5445 237.499 41.3262 238.415 41.3287C240.163 41.3343 240.186 41.0252 238.584 39.0193C237.331 37.4498 237.331 37.441 238.584 35.8715C240.156 33.9024 240.185 31.9008 238.668 30.0547C237.738 28.9234 236.687 28.5701 233.599 28.3497L229.702 28.0725V34.7028ZM249.551 29.0027C248.754 30.2364 244.277 40.2817 244.277 40.8342C244.277 42.0866 246.89 41.2107 247.445 39.7722C247.965 38.4231 248.439 38.2114 250.928 38.2114C253.386 38.2114 253.915 38.4406 254.531 39.7722C254.991 40.7693 255.771 41.333 256.689 41.333C258.089 41.333 258.053 41.1688 255.234 34.7777C253.094 29.9267 252.045 28.2223 251.198 28.2223C250.569 28.2223 249.828 28.5738 249.551 29.0027ZM262.653 34.7777C262.653 40.9166 262.734 41.333 263.92 41.333C264.946 41.333 265.188 40.9166 265.188 39.1479C265.188 36.9859 265.217 36.9628 267.941 36.9628C271.215 36.9628 272.792 35.5912 272.792 32.7449C272.792 29.8649 270.345 28.2223 266.053 28.2223H262.653V34.7777ZM277.672 28.6169C277.428 28.8579 277.228 31.8172 277.228 35.1941C277.228 40.9166 277.314 41.333 278.495 41.333C279.551 41.333 279.762 40.9166 279.762 38.8358V36.3385H282.614H285.465V38.8358C285.465 40.9166 285.676 41.333 286.733 41.333C287.92 41.333 288 40.9166 288 34.7321C288 28.7823 287.89 28.1511 286.891 28.3378C286.079 28.4895 285.73 29.2637 285.586 31.2272L285.389 33.9093L282.734 33.7195C280.099 33.5303 280.079 33.5103 280.038 31.0324C279.999 28.6437 278.843 27.4638 277.672 28.6169ZM36.8668 34.867C41.3849 36.5845 50.8773 36.4384 55.0475 34.5879C56.7477 33.8337 58.2051 33.2169 58.2862 33.2169C58.368 33.2169 58.1443 34.4686 57.7888 35.9982C57.2191 38.4512 56.8376 38.9001 54.5501 39.8028C45.2567 43.4713 31.9064 40.1375 29.0663 33.4398C27.4936 29.7319 27.9517 29.2968 31.0054 31.5936C32.5515 32.7561 35.1895 34.2295 36.8668 34.867ZM236.989 33.2275C236.989 34.5679 236.668 34.8039 234.613 34.9712C232.295 35.1604 232.237 35.1142 232.237 33.0408C232.237 30.9344 232.257 30.9194 234.613 31.2965C236.617 31.6174 236.989 31.9202 236.989 33.2275ZM117.651 32.3772C119.211 33.7688 119.112 36.012 117.422 37.5628C115.761 39.088 114.502 39.1666 112.614 37.8637C111.043 36.7805 110.662 33.378 111.966 32.0931C113.064 31.0112 116.3 31.1729 117.651 32.3772ZM269.94 33.2169C269.94 34.5698 269.624 34.8033 267.564 34.9712C265.283 35.1573 265.188 35.0867 265.188 33.2169C265.188 31.347 265.283 31.2765 267.564 31.4625C269.624 31.6305 269.94 31.864 269.94 33.2169ZM252.492 35.5581C252.504 35.9876 251.801 36.3385 250.93 36.3385C249.09 36.3385 249.14 36.4833 250.071 33.8518L250.796 31.8028L251.633 33.2905C252.093 34.1084 252.479 35.1292 252.492 35.5581ZM30.3476 38.1409C33.9374 42.0491 45.2643 44.2311 52.2733 42.3638C54.1895 41.8531 55.8612 41.5378 55.9879 41.6627C56.1146 41.7869 55.9619 42.9581 55.6489 44.2648C54.9613 47.1342 53.3385 48.0451 47.9162 48.6032C42.9843 49.1108 37.2432 47.9277 33.6028 45.6533C30.4363 43.6749 29.0277 41.8481 28.4415 38.9594C27.9815 36.6956 28.726 36.3759 30.3476 38.1409ZM36.2921 48.8143C40.4496 50.3488 45.5767 50.8277 50.0168 50.096C52.087 49.7551 53.8879 49.5822 54.0191 49.712C54.1509 49.8413 53.9487 51.0799 53.5704 52.4647C52.8937 54.9413 52.8265 54.9882 49.3413 55.4171C40.0352 56.5627 31.4743 53.3268 29.0632 47.7523C27.4739 44.0775 27.934 43.5219 30.7475 45.7176C32.1517 46.8133 34.6471 48.2068 36.2921 48.8143Z" fill="white"/>
</svg>
