<svg width="300" height="71" viewBox="0 0 300 71" fill="none" xmlns="http://www.w3.org/2000/svg">
<path opacity="1" fill-rule="evenodd" clip-rule="evenodd" d="M49.7999 9.00087C46.9101 11.6265 42.2028 12.9173 38.5053 12.0978C36.5357 11.6605 34.6763 11.8745 32.6163 12.7746C30.1278 13.8607 29.5225 14.6241 29.1277 17.1708C28.594 20.6192 29.821 32.1569 31.173 36.3892C32.0135 39.0242 32.2446 39.149 36.2537 39.149C41.9964 39.149 49.8739 36.7679 50.9406 34.7104C51.5952 33.4485 51.462 32.6834 50.3698 31.4385C48.3936 29.1831 48.6617 24.6664 50.883 22.8092C54.8066 19.5281 60.7096 22.4687 60.7096 27.7047V30.1614L64.4284 26.3928C67.9161 22.8585 70.4828 18.4785 71.829 13.7622C72.3331 11.9984 72.181 11.7887 70.6933 12.1904C68.0436 12.9062 62.4712 11.3047 59.5188 8.97965C56.1577 6.33278 52.7284 6.34042 49.7999 9.00087ZM260.548 12.8247C255.512 18.025 263.217 26.3435 268.609 21.5287C269.524 20.7118 270.487 19.0873 270.748 17.9197C271.176 16.0082 271.114 16.0371 270.131 18.2084C268.808 21.1338 267.399 22.135 264.582 22.1528C259.84 22.1817 258.049 16.0082 261.893 12.8867C263.084 11.9186 263.639 11.1264 263.126 11.1264C262.613 11.1264 261.453 11.8906 260.548 12.8247ZM266.852 11.9755C267.83 12.3831 269.022 13.4098 269.499 14.2564C269.976 15.1039 270.378 15.3782 270.392 14.8669C270.427 13.5754 267.656 11.1153 266.24 11.1798C265.598 11.2096 265.872 11.5679 266.852 11.9755ZM73.9039 15.5845C72.3743 20.8621 67.602 27.8134 62.8297 31.7171C58.6989 35.0959 58.6537 35.1842 58.6537 39.9005C58.6537 44.52 58.5797 44.6771 56.2926 44.9471C54.9941 45.1008 53.0121 44.9871 51.8871 44.6958C50.1692 44.2508 49.9003 43.7659 50.1996 41.6575C50.3961 40.2775 50.4537 39.149 50.3279 39.149C50.2021 39.149 47.9677 39.7222 45.3632 40.4228C42.7579 41.1233 39.0391 41.6965 37.0991 41.6965C35.1583 41.6965 33.5711 41.9496 33.5711 42.2587C33.5711 42.5686 34.7166 44.6652 36.1172 46.9189C39.1156 51.7431 46.2045 58.6426 51.3838 61.7769L55.0582 64L60.7886 59.9579C73.7666 50.8013 80.4468 37.7615 80.4468 21.5847C80.4468 14.6716 80.4106 14.5468 78.0207 13.2714C76.686 12.5589 75.4491 11.9755 75.2723 11.9755C75.0955 11.9755 74.4796 13.5991 73.9039 15.5845ZM263.111 17.2234C263.163 19.241 263.375 20.2227 263.582 19.4058C264.044 17.5809 264.614 17.5308 265.803 19.2079C266.531 20.2363 266.716 19.8499 266.716 17.2973C266.716 14.6266 266.411 14.0534 264.866 13.8267C263.18 13.5796 263.023 13.8819 263.111 17.2234ZM266.305 15.7968C266.305 16.4974 265.75 17.0705 265.071 17.0705C264.393 17.0705 263.838 16.4974 263.838 15.7968C263.838 15.0962 264.393 14.523 265.071 14.523C265.75 14.523 266.305 15.0962 266.305 15.7968ZM96.8944 21.1058C89.5349 24.9016 89.1163 38.896 96.2282 43.3728C101.255 46.5376 107.982 44.9548 110.45 40.0262C112.094 36.7416 112.058 36.6015 109.554 36.6015C108.247 36.6015 106.779 37.4303 105.793 38.7244C103.591 41.6158 100.028 41.5649 97.7768 38.6098C95.2447 35.2861 95.4075 28.7186 98.0909 25.9486C100.698 23.2559 103.725 23.2712 105.793 25.9868C107.506 28.2338 111.697 28.9708 111.697 27.0254C111.697 25.2345 109.284 22.2378 106.754 20.8867C103.621 19.2147 100.423 19.2852 96.8944 21.1058ZM190.646 32.3556V44.244H197.186C200.783 44.244 204.651 43.8093 205.782 43.2768C209.023 41.7517 210.617 37.2944 210.22 30.8602C209.917 25.9274 209.598 25.0782 207.24 22.9027C204.773 20.6269 204.143 20.4672 197.623 20.4672H190.646V32.3556ZM229.298 22.1656C229.298 23.4869 229.846 23.8639 231.765 23.8639C233.683 23.8639 234.232 23.4869 234.232 22.1656C234.232 20.8443 233.683 20.4672 231.765 20.4672C229.846 20.4672 229.298 20.8443 229.298 22.1656ZM237.521 32.3556V44.244H239.577H241.633V32.3556V20.4672H239.577H237.521V32.3556ZM163.268 21.8463C162.947 22.1775 162.685 23.34 162.685 24.4303C162.685 25.6251 162.196 26.4114 161.451 26.4114C160.766 26.4114 160.218 27.1663 160.218 28.1098C160.218 29.0532 160.766 29.8081 161.451 29.8081C162.437 29.8081 162.685 31.0768 162.685 36.1285C162.685 41.6974 162.902 42.6068 164.513 43.771C165.518 44.4979 167.183 45.0932 168.214 45.0932C169.663 45.0932 170.086 44.6134 170.086 42.9703C170.086 41.649 169.62 40.8473 168.853 40.8473C167.883 40.8473 167.619 39.6678 167.619 35.3277C167.619 30.9876 167.883 29.8081 168.853 29.8081C169.538 29.8081 170.086 29.0532 170.086 28.1098C170.086 27.1757 169.556 26.4114 168.907 26.4114C168.233 26.4114 167.617 25.4128 167.468 24.0762C167.213 21.7868 164.645 20.4239 163.268 21.8463ZM203.944 26.1185C205.877 27.9247 206.016 35.3863 204.168 38.1105C203.172 39.5795 202.078 39.9982 199.234 39.9982H195.58V32.3556V24.7131H199.01C201.048 24.7131 203.051 25.2837 203.944 26.1185ZM114.164 35.3277V44.244H116.22C118.136 44.244 118.276 43.957 118.276 40.0534C118.276 34.4556 119.407 31.672 121.948 31.0139C123.452 30.6233 124.033 29.9083 124.033 28.4427C124.033 26.0259 122.015 25.7287 119.78 27.8168C118.381 29.1245 118.276 29.1245 118.276 27.8168C118.276 26.8836 117.585 26.4114 116.22 26.4114H114.164V35.3277ZM124.855 26.7655C124.855 26.96 126.283 31.2594 128.027 36.3187C129.771 41.3781 131.036 45.9959 130.836 46.5793C130.637 47.1635 129.766 47.6407 128.899 47.6407C127.766 47.6407 127.322 48.2377 127.322 49.7636C127.322 51.4153 127.744 51.8866 129.221 51.8866C130.266 51.8866 131.763 51.4008 132.549 50.8073C133.853 49.8231 141.303 29.9652 141.303 27.4746C141.303 26.8895 140.407 26.4114 139.311 26.4114C137.221 26.4114 136.856 27.1451 134.666 35.7523C133.56 40.0984 133.278 39.7562 130.992 31.2942C129.77 26.7715 129.495 26.4114 127.264 26.4114C125.939 26.4114 124.855 26.5711 124.855 26.7655ZM143.308 27.5154C143.083 28.1234 143.001 33.7593 143.129 40.0406L143.359 51.462H145.415C147.304 51.462 147.504 51.0892 147.882 46.8629C148.244 42.8157 148.429 42.4327 149.421 43.6785C150.835 45.4499 154.351 45.5025 156.721 43.7889C160.645 40.9509 161.146 31.5583 157.557 28.1064C155.575 26.1991 150.447 25.8009 148.869 27.4304C148.102 28.2227 147.882 28.2227 147.882 27.4304C147.882 26.0514 143.824 26.127 143.308 27.5154ZM173.312 28.8936C171.346 30.9239 170.909 32.0932 170.909 35.3184C170.909 40.1383 171.873 42.1389 175.004 43.811C179.061 45.9772 182.232 45.4592 185.485 42.0999C188.216 39.2806 188.36 38.8518 187.975 34.7197C187.44 28.9674 184.813 26.4114 179.434 26.4114C176.422 26.4114 175.261 26.8819 173.312 28.8936ZM213.672 28.1098C212.768 29.0439 212.028 30.3813 212.028 31.0819C212.028 32.7997 215.816 32.7513 216.458 31.025C217.125 29.2307 221.381 29.7427 221.733 31.6593C221.937 32.7683 221.136 33.2184 218.135 33.6829C216.012 34.0115 213.584 34.994 212.74 35.8661C208.107 40.6495 214.593 47.7316 220.015 43.8101C221.137 42.9983 221.977 42.8429 222.302 43.3855C222.585 43.8577 223.627 44.244 224.617 44.2449C226.361 44.2449 226.41 43.991 226.151 36.39C225.84 27.2436 225.266 26.4114 219.272 26.4114C216.413 26.4114 214.861 26.8827 213.672 28.1098ZM229.846 26.9778C229.544 27.2886 229.298 31.301 229.298 35.8941V44.244H231.765H234.232V35.3277C234.232 26.5532 234.201 26.4114 232.313 26.4114C231.257 26.4114 230.147 26.6662 229.846 26.9778ZM244.1 27.1061C244.1 27.4873 245.396 31.543 246.979 36.1175C250.319 45.7674 250.431 46.7958 248.212 47.3945C245.772 48.0534 245.948 51.8908 248.418 51.8738C250.772 51.8569 251.819 51.1206 253.125 48.5612C254.018 46.8119 260.548 27.4992 260.548 26.6067C260.548 26.4378 259.53 26.4199 258.287 26.5677C256.224 26.8122 255.889 27.3752 254.474 32.9713C253.621 36.3459 252.651 38.9333 252.318 38.7202C251.985 38.5079 251.039 35.6513 250.215 32.3726C248.809 26.7732 248.578 26.4114 246.409 26.4114C245.139 26.4114 244.1 26.7239 244.1 27.1061ZM153.991 31.1422C155.514 32.7157 155.713 38.3661 154.297 39.8283C153.028 41.1386 150.138 41.1386 148.869 39.8283C146.419 37.2987 148.447 29.8081 151.583 29.8081C152.196 29.8081 153.28 30.4085 153.991 31.1422ZM182.202 30.8696C184.411 33.7848 183.818 39.498 181.199 40.5357C180.512 40.8083 179.043 40.7955 177.933 40.5077C175.221 39.8046 174.238 34.9889 176.181 31.9276C177.631 29.6417 180.845 29.077 182.202 30.8696ZM221.036 40.4695C219.707 42.1236 216.438 42.0268 215.802 40.3149C215.106 38.4408 216.618 36.7577 219.284 36.4393C221.772 36.1429 222.734 38.3567 221.036 40.4695Z" fill="white"/>
</svg>
