<svg width="300" height="71" viewBox="0 0 300 71" fill="none" xmlns="http://www.w3.org/2000/svg">
<path opacity="1" fill-rule="evenodd" clip-rule="evenodd" d="M22.4623 8.893L14.5 16.786V32.5369V48.2878L22.4997 56.1439L30.4993 64H46.4257H62.352L70.3526 56.143L78.3523 48.2869L70.3891 40.393L62.4268 32.5L70.3891 24.607L78.3523 16.7131L70.3526 8.857L62.352 1H46.3883H30.4245L22.4623 8.893ZM164.095 18.55C164.095 19.9504 163.577 20.8 162.726 20.8C161.875 20.8 161.358 21.6496 161.358 23.05C161.358 24.4504 161.875 25.3 162.726 25.3C163.808 25.3 164.095 26.5807 164.095 31.4281C164.095 38.962 165.238 40.7755 170.092 40.933C173.335 41.0392 173.672 40.8376 173.672 38.8C173.672 37.3996 173.155 36.55 172.304 36.55C171.266 36.55 170.871 35.2198 170.668 31.0402C170.435 26.281 170.632 25.471 172.112 25.0885C174.311 24.5215 174.34 21.5857 172.152 21.0214C171.12 20.755 170.48 19.7686 170.48 18.4447C170.48 16.5934 170.043 16.3 167.287 16.3C164.49 16.3 164.095 16.579 164.095 18.55ZM54.6415 24.8563L62.3621 32.5135L54.3934 40.375L46.4257 48.2374L38.4579 40.375L30.4893 32.5135L38.2098 24.8563C42.455 20.6452 46.1529 17.2 46.4257 17.2C46.6984 17.2 50.3963 20.6452 54.6415 24.8563ZM88.7135 22.114C84.2156 25.2226 83.568 34.2487 87.5441 38.4247C90.3107 41.3308 94.7055 42.0445 98.3551 40.1824C101.103 38.7802 103.233 35.5339 102.363 34.075C101.564 32.7367 97.878 33.4387 96.3282 35.2252C95.0421 36.7075 94.3954 36.8659 92.8857 36.0685C91.356 35.2603 91.0751 34.354 91.3022 30.9601C91.6288 26.0758 94.057 23.7628 96.0646 26.425C97.1446 27.8578 102.98 28.7569 102.98 27.4906C102.98 26.3998 100.785 22.9951 99.4104 21.9538C97.4028 20.4328 91.0076 20.5291 88.7135 22.114ZM105.716 30.7V40.6H108.87H112.025L112.291 33.625C112.537 27.1702 112.711 26.6284 114.61 26.362C115.738 26.2045 116.668 25.7995 116.675 25.462C116.681 25.1254 116.935 23.9392 117.237 22.825C117.667 21.241 117.406 20.8 116.039 20.8C115.077 20.8 113.747 21.3067 113.082 21.925C112.115 22.825 111.789 22.825 111.456 21.925C111.226 21.3067 109.84 20.8 108.377 20.8H105.716V30.7ZM119.399 21.2095C119.399 21.4345 120.976 25.9903 122.903 31.3345C124.831 36.6778 126.224 41.5828 126 42.2335C125.776 42.8842 124.609 43.7851 123.408 44.236C122.067 44.7391 121.223 45.7804 121.223 46.9324C121.223 48.5425 121.695 48.7693 124.553 48.529C129.039 48.1528 130.356 46.1458 135.239 32.2264L139.283 20.7019L135.981 20.9764C132.861 21.2347 132.601 21.5074 131.256 25.9282C130.472 28.5013 129.604 30.8305 129.326 31.105C129.048 31.3795 128.135 29.1727 127.298 26.2018C125.808 20.9161 125.708 20.8 122.588 20.8C120.833 20.8 119.399 20.9845 119.399 21.2095ZM141.291 34.75V48.7H144.483H147.676V44.1685C147.676 39.9673 147.804 39.7045 149.44 40.5685C152.301 42.0787 154.034 41.6647 156.972 38.7667C159.604 36.1693 159.723 35.7364 159.359 30.0961C159.046 25.2514 158.589 23.851 156.873 22.4794C154.459 20.5516 150.425 20.2789 148.656 21.925C147.689 22.825 147.364 22.825 147.03 21.925C146.8 21.3067 145.414 20.8 143.951 20.8H141.291V34.75ZM178.619 23.4307C176.368 25.6519 175.953 26.7769 175.953 30.6622C175.953 33.3226 176.556 36.1711 177.381 37.414C180.36 41.9005 188.522 42.3928 192.4 38.3203C195.088 35.497 195.789 29.2096 193.832 25.4755C191.974 21.9304 189.854 20.8 185.064 20.8C182.103 20.8 180.708 21.3697 178.619 23.4307ZM197.845 30.7V40.6H201.001H204.156L204.421 33.175C204.679 25.9246 204.74 25.75 206.966 25.75C209.193 25.75 209.253 25.9246 209.511 33.175L209.777 40.6H212.932H216.088V32.5C216.088 25.5997 215.818 24.1336 214.264 22.6C212.087 20.4526 207.659 20.2411 206.007 22.2067C204.933 23.4829 204.749 23.4829 204.024 22.2067C203.582 21.4273 202.028 20.8 200.535 20.8H197.845V30.7ZM222.403 23.4307C220.152 25.6519 219.736 26.7769 219.736 30.6622C219.736 36.3853 221.615 39.3742 226.03 40.6792C229.393 41.6728 237.087 40.4947 237.054 38.9899C237.007 36.8866 235.234 35.8768 232.524 36.4114C229.246 37.0585 226.122 35.7931 226.122 33.8185C226.122 32.8069 227.396 32.5 231.595 32.5H237.068V28.8595C237.068 23.824 233.976 20.8 228.83 20.8C225.89 20.8 224.487 21.3742 222.403 23.4307ZM239.24 22.375C239.499 23.2408 240.592 27.7192 241.67 32.3254L243.629 40.7008L246.4 40.4254C248.888 40.1779 249.331 39.6451 250.741 35.2C252.228 30.5137 252.361 30.3697 253.238 32.5C253.749 33.7375 254.456 36.0658 254.811 37.675C255.374 40.2274 255.824 40.6 258.347 40.5973L261.24 40.5937L263.297 31.8223C265.891 20.7622 265.893 20.8 262.674 20.8C260.12 20.8 259.976 21.0169 259.374 25.7617C259.029 28.4905 258.436 30.9133 258.056 31.1446C257.676 31.3759 256.67 29.1187 255.82 26.128C254.481 21.4201 254.006 20.7289 252.283 20.9701C250.694 21.1933 250.027 22.2922 248.967 26.425C248.236 29.2717 247.359 31.6 247.017 31.6C246.676 31.6 246.112 29.7253 245.763 27.4348C244.846 21.3958 244.46 20.8 241.47 20.8C239.326 20.8 238.866 21.1249 239.24 22.375ZM270.078 22.6351C268.887 23.7295 268.081 25.552 268.081 27.1495C268.081 29.9098 268.333 30.0925 276.591 33.3181C278.009 33.8725 279.003 34.8265 278.799 35.4376C278.226 37.1566 274.292 37.369 273.363 35.731C272.498 34.2055 267.169 33.7051 267.169 35.1496C267.169 35.6176 268.124 37.0954 269.292 38.4346C270.976 40.3669 272.257 40.8889 275.489 40.96C281.198 41.086 284.5 38.8117 284.5 34.7527C284.5 32.2228 284 31.3912 281.809 30.2734C280.329 29.5183 278.326 28.9 277.36 28.9C275.268 28.9 273.154 26.668 273.986 25.3396C274.869 23.9284 278.098 24.2101 278.697 25.75C278.996 26.5195 280.357 27.1 281.861 27.1C283.866 27.1 284.5 26.6797 284.5 25.3513C284.5 20.9638 274.038 18.9937 270.078 22.6351ZM153.171 27.6085C154.51 31.0843 154.254 33.2092 152.257 35.1793C149.339 38.0584 147.676 36.6139 147.676 31.204C147.676 28.6165 147.949 26.2297 148.284 25.9003C149.692 24.5107 152.333 25.4341 153.171 27.6085ZM187.628 26.38C189.182 27.9127 188.986 33.9121 187.328 35.5474C183.737 39.0907 179.643 32.0671 182.37 27.0406C183.434 25.0786 185.985 24.7582 187.628 26.38ZM230.682 25.6762C230.682 25.8832 230.931 26.6932 231.236 27.4762C231.668 28.5859 231.165 28.9 228.956 28.9C226.29 28.9 225.191 27.4186 226.73 25.9003C227.39 25.2487 230.682 25.0624 230.682 25.6762Z" fill="white"/>
</svg>
